<svg xmlns="http://www.w3.org/2000/svg" viewBox="0 0 800 800">
<defs>
<linearGradient id="bg" x1="0" y1="0" x2="0" y2="1">
<stop offset="0" stop-color="#eef2f8"/><stop offset="1" stop-color="#e2e8f2"/></linearGradient>
<linearGradient id="ac" x1="0" y1="0" x2="1" y2="1">
<stop offset="0" stop-color="#7a3ff0"/><stop offset="1" stop-color="#6227d8"/></linearGradient>
</defs>
<rect width="800" height="800" fill="url(#bg)"/>
<ellipse cx="400" cy="640" rx="220" ry="34" fill="#000" opacity="0.06"/>
<g transform="translate(400 400)">
    <rect x="-260" y="-110" width="520" height="220" rx="26" fill="#222735"/>
    <g fill="url(#ac)">
    <rect x="-230" y="-84" width="26" height="30" rx="5"/><rect x="-198" y="-84" width="26" height="30" rx="5"/><rect x="-166" y="-84" width="26" height="30" rx="5"/><rect x="-134" y="-84" width="26" height="30" rx="5"/><rect x="-102" y="-84" width="26" height="30" rx="5"/><rect x="-70" y="-84" width="26" height="30" rx="5"/><rect x="-38" y="-84" width="26" height="30" rx="5"/><rect x="-6" y="-84" width="26" height="30" rx="5"/><rect x="26" y="-84" width="26" height="30" rx="5"/><rect x="58" y="-84" width="26" height="30" rx="5"/><rect x="90" y="-84" width="26" height="30" rx="5"/><rect x="122" y="-84" width="26" height="30" rx="5"/><rect x="154" y="-84" width="26" height="30" rx="5"/><rect x="186" y="-84" width="26" height="30" rx="5"/>
    <rect x="-230" y="-42" width="26" height="30" rx="5"/><rect x="-198" y="-42" width="26" height="30" rx="5"/><rect x="-166" y="-42" width="26" height="30" rx="5"/><rect x="-134" y="-42" width="26" height="30" rx="5"/><rect x="-102" y="-42" width="26" height="30" rx="5"/><rect x="-70" y="-42" width="26" height="30" rx="5"/><rect x="-38" y="-42" width="26" height="30" rx="5"/><rect x="-6" y="-42" width="26" height="30" rx="5"/><rect x="26" y="-42" width="26" height="30" rx="5"/><rect x="58" y="-42" width="26" height="30" rx="5"/><rect x="90" y="-42" width="26" height="30" rx="5"/><rect x="122" y="-42" width="26" height="30" rx="5"/><rect x="154" y="-42" width="26" height="30" rx="5"/><rect x="186" y="-42" width="26" height="30" rx="5"/><rect x="218" y="-42" width="26" height="30" rx="5"/>
    <rect x="-230" y="0" width="26" height="30" rx="5"/><rect x="-198" y="0" width="26" height="30" rx="5"/><rect x="-166" y="0" width="26" height="30" rx="5"/><rect x="-134" y="0" width="26" height="30" rx="5"/><rect x="-102" y="0" width="26" height="30" rx="5"/><rect x="-70" y="0" width="26" height="30" rx="5"/><rect x="-38" y="0" width="26" height="30" rx="5"/><rect x="-6" y="0" width="26" height="30" rx="5"/><rect x="26" y="0" width="26" height="30" rx="5"/><rect x="58" y="0" width="26" height="30" rx="5"/><rect x="90" y="0" width="26" height="30" rx="5"/><rect x="122" y="0" width="26" height="30" rx="5"/><rect x="154" y="0" width="26" height="30" rx="5"/><rect x="186" y="0" width="26" height="30" rx="5"/>
    <rect x="-150" y="42" width="300" height="34" rx="8"/>
    </g>
  </g>
</svg>