<svg xmlns="http://www.w3.org/2000/svg" viewBox="0 0 800 800">
<defs>
<linearGradient id="bg" x1="0" y1="0" x2="0" y2="1">
<stop offset="0" stop-color="#eef2f8"/><stop offset="1" stop-color="#e2e8f2"/></linearGradient>
<linearGradient id="ac" x1="0" y1="0" x2="1" y2="1">
<stop offset="0" stop-color="#D4AF37"/><stop offset="1" stop-color="#bc971f"/></linearGradient>
</defs>
<rect width="800" height="800" fill="url(#bg)"/>
<ellipse cx="400" cy="640" rx="220" ry="34" fill="#000" opacity="0.06"/>
<g transform="translate(400 400)">
    <path d="M0 -230 A150 150 0 0 1 90 40 C70 70 66 90 66 120 L-66 120 C-66 90 -70 70 -90 40 A150 150 0 0 1 0 -230 Z" fill="url(#ac)"/>
    <path d="M0 -210 A128 128 0 0 0 -70 30 L20 -60 L-30 -60 L60 -150 Z" fill="#fff" opacity="0.35"/>
    <rect x="-58" y="120" width="116" height="30" rx="8" fill="#aab2c0"/>
    <rect x="-48" y="150" width="96" height="24" rx="6" fill="#cfd6e2"/>
    <rect x="-38" y="174" width="76" height="22" rx="6" fill="#aab2c0"/>
    <path d="M-30 196 Q0 220 30 196" fill="#222735"/>
  </g>
</svg>